<?xml version="1.0" encoding="utf-8"?>
<!-- Generator: Adobe Illustrator 23.0.3, SVG Export Plug-In . SVG Version: 6.00 Build 0)  -->
<svg version="1.1" id="Layer_1" xmlns="http://www.w3.org/2000/svg" xmlns:xlink="http://www.w3.org/1999/xlink" x="0px" y="0px"
	 viewBox="0 0 512 512" style="enable-background:new 0 0 512 512;" xml:space="preserve">
<style type="text/css">
	.st0{fill:#9BC91C;}
	.st1{fill:#64AA14;}
	.st2{display:none;fill:#ECECF1;}
	.st3{display:none;}
	.st4{display:inline;fill:#E2E2E7;}
	.st5{fill:#ECECF1;}
</style>
<path class="st0" d="M30,0l31.8,448.1L256.2,512l194.4-63.9L482.4,0H30z"/>
<path class="st1" d="M482.4,0l-31.8,448.1L256.2,512V0H482.4z"/>
<polyline class="st2" points="175.2,136 180.6,211 392.1,211 379.2,392.6 256.2,433.7 133.2,392.6 129,332 189,332 190.2,348.5 
	256.2,370.4 322.2,348.5 327.6,271 124.5,271 110.7,76 401.7,76 397.5,136 175.2,136 "/>
<g class="st3">
	<path class="st4" d="M331.8,211h60.3v0l-12.9,181.6l-123,41.1v-63.3l66-21.9l5.4-77.5"/>
	<path class="st4" d="M327.6,271h-71.4v-60h75.6"/>
	<path class="st4" d="M401.7,76l-4.2,60H256.2V76H401.7z"/>
</g>
<line class="st5" x1="331.8" y1="211" x2="180.6" y2="211"/>
<polyline class="st5" points="175.2,136 397.5,136 401.7,76 110.7,76 114.9,136 "/>
<polyline class="st5" points="331.8,211 392.1,211 379.2,392.6 256.2,433.7 133.2,392.6 129,332 189,332 190.2,348.5 256.2,370.4 
	322.2,348.5 327.6,271 331.8,211 392.1,211 397.5,136 337,136 "/>
</svg>
